<svg xmlns="http://www.w3.org/2000/svg" viewBox="0 0 100 100"><style>.horizon{fill:rgb(28, 43, 83);stroke:rgba(126,184,255,0.55);stroke-width:1.6}.grid{fill:none;stroke:rgba(126,184,255,0.18);stroke-width:0.8}.arc line,.arc polyline{fill:none;stroke-width:8;stroke-linecap:round;stroke-linejoin:round}</style><circle r="42" cy="50" cx="50" class="horizon" /><circle r="14" cy="50" cx="50" class="grid" /><path fill="rgba(126,184,255,0.85)" d="M 50 2 L 57 11 L 43 11 Z" /><g class="arc"><line stroke-opacity="0.426" stroke="rgb(173, 173, 173)" y2="66.36" x2="82.79" y1="66.96" x1="83.27" /><line stroke-opacity="0.445" stroke="rgb(173, 173, 173)" y2="65.69" x2="82.26" y1="66.36" x1="82.79" /><line stroke-opacity="0.465" stroke="rgb(173, 173, 173)" y2="64.95" x2="81.66" y1="65.69" x1="82.26" /><line stroke-opacity="0.486" stroke="rgb(173, 173, 173)" y2="64.12" x2="80.99" y1="64.95" x1="81.66" /><line stroke-opacity="0.509" stroke="rgb(173, 173, 173)" y2="63.19" x2="80.22" y1="64.12" x1="80.99" /><line stroke-opacity="0.534" stroke="rgb(173, 173, 173)" y2="62.13" x2="79.32" y1="63.19" x1="80.22" /><line stroke-opacity="0.560" stroke="rgb(173, 173, 173)" y2="60.92" x2="78.27" y1="62.13" x1="79.32" /><line stroke-opacity="0.588" stroke="rgb(173, 173, 173)" y2="59.51" x2="77.00" y1="60.92" x1="78.27" /><line stroke-opacity="0.618" stroke="rgb(173, 173, 173)" y2="57.85" x2="75.46" y1="59.51" x1="77.00" /><line stroke-opacity="0.650" stroke="rgb(173, 173, 173)" y2="55.91" x2="73.56" y1="57.85" x1="75.46" /><line stroke-opacity="0.683" stroke="rgb(173, 173, 173)" y2="53.62" x2="71.18" y1="55.91" x1="73.56" /><line stroke-opacity="0.717" stroke="rgb(173, 173, 173)" y2="50.94" x2="68.20" y1="53.62" x1="71.18" /><line stroke-opacity="0.751" stroke="rgb(173, 173, 173)" y2="47.90" x2="64.52" y1="50.94" x1="68.20" /><line stroke-opacity="0.780" stroke="rgb(173, 173, 173)" y2="44.61" x2="60.14" y1="47.90" x1="64.52" /><line stroke-opacity="0.802" stroke="rgb(173, 173, 173)" y2="41.29" x2="55.26" y1="44.61" x1="60.14" /><line stroke-opacity="0.813" stroke="rgb(173, 173, 173)" y2="38.25" x2="50.23" y1="41.29" x1="55.26" /><line stroke-opacity="0.812" stroke="rgb(173, 173, 173)" y2="35.67" x2="45.48" y1="38.25" x1="50.23" /><line stroke-opacity="0.799" stroke="rgb(173, 173, 173)" y2="33.63" x2="41.26" y1="35.67" x1="45.48" /><line stroke-opacity="0.779" stroke="rgb(173, 173, 173)" y2="32.07" x2="37.67" y1="33.63" x1="41.26" /><line stroke-opacity="0.754" stroke="rgb(173, 173, 173)" y2="30.88" x2="34.67" y1="32.07" x1="37.67" /><line stroke-opacity="0.727" stroke="rgb(173, 173, 173)" y2="29.97" x2="32.16" y1="30.88" x1="34.67" /><line stroke-opacity="0.700" stroke="rgb(173, 173, 173)" y2="29.27" x2="30.07" y1="29.97" x1="32.16" /><line stroke-opacity="0.673" stroke="rgb(173, 173, 173)" y2="28.71" x2="28.29" y1="29.27" x1="30.07" /><line stroke-opacity="0.647" stroke="rgb(173, 173, 173)" y2="28.26" x2="26.77" y1="28.71" x1="28.29" /><line stroke-opacity="0.623" stroke="rgb(173, 173, 173)" y2="27.89" x2="25.46" y1="28.26" x1="26.77" /><line stroke-opacity="0.600" stroke="rgb(173, 173, 173)" y2="27.58" x2="24.31" y1="27.89" x1="25.46" /><line stroke-opacity="0.578" stroke="rgb(173, 173, 173)" y2="27.31" x2="23.29" y1="27.58" x1="24.31" /><line stroke-opacity="0.557" stroke="rgb(173, 173, 173)" y2="27.08" x2="22.38" y1="27.31" x1="23.29" /><line stroke-opacity="0.537" stroke="rgb(173, 173, 173)" y2="26.88" x2="21.56" y1="27.08" x1="22.38" /><line stroke-opacity="0.518" stroke="rgb(173, 173, 173)" y2="26.69" x2="20.82" y1="26.88" x1="21.56" /></g></svg>
